<svg xmlns="http://www.w3.org/2000/svg" width="319.409" height="303.94" viewBox="0 0 319.409 303.94">
  <g id="Group_8" data-name="Group 8" transform="translate(2369.705 -567)">
    <path id="Subtraction_4" data-name="Subtraction 4" d="M274.166,237.773H45.243a24.207,24.207,0,0,1-3.628-.273,23.707,23.707,0,0,1-3.5-.8,22.669,22.669,0,0,1-3.285-1.31,21.219,21.219,0,0,1-3-1.794,18.81,18.81,0,0,1-2.548-2.19,15.945,15.945,0,0,1-1.968-2.472,13.734,13.734,0,0,1-1.345-2.7,12.358,12.358,0,0,1-.679-2.858l-23-203.1a18.413,18.413,0,0,1-.028-3.941,17.309,17.309,0,0,1,.807-3.755A17.114,17.114,0,0,1,4.7,9.107,17.847,17.847,0,0,1,7.1,6a18.746,18.746,0,0,1,3.075-2.564,19.65,19.65,0,0,1,3.576-1.883A21.164,21.164,0,0,1,17.737.4,23.138,23.138,0,0,1,22.028,0H297.381a23.138,23.138,0,0,1,4.291.4,21.164,21.164,0,0,1,3.982,1.159,19.651,19.651,0,0,1,3.576,1.883A18.746,18.746,0,0,1,312.3,6a17.847,17.847,0,0,1,2.408,3.106,17.115,17.115,0,0,1,1.62,3.477,17.307,17.307,0,0,1,.808,3.755,18.415,18.415,0,0,1-.028,3.941l-23,203.1a12.359,12.359,0,0,1-.679,2.858,13.731,13.731,0,0,1-1.345,2.7,15.941,15.941,0,0,1-1.968,2.472,18.809,18.809,0,0,1-2.548,2.19,21.217,21.217,0,0,1-3,1.794,22.668,22.668,0,0,1-3.285,1.31,23.7,23.7,0,0,1-3.5.8A24.207,24.207,0,0,1,274.166,237.773ZM160.246,24.266a132.422,132.422,0,0,0-48.307,8.975,116.957,116.957,0,0,0-37.975,23.88,96.8,96.8,0,0,0-23.379,33.9,84.335,84.335,0,0,0-5.843,39.231,87.022,87.022,0,0,0,12.146,36.965,102.591,102.591,0,0,0,25.87,28.669,121.133,121.133,0,0,0,35.469,18.61,134.914,134.914,0,0,0,83.889,0,121.248,121.248,0,0,0,35.483-18.61,102.71,102.71,0,0,0,25.892-28.669,87.083,87.083,0,0,0,12.175-36.965,84.307,84.307,0,0,0-5.812-39.231,96.691,96.691,0,0,0-23.352-33.9,116.834,116.834,0,0,0-37.956-23.88A132.365,132.365,0,0,0,160.246,24.266Z" transform="translate(-2369.705 633.167)" fill="#fff"/>
    <path id="Ellipse_2" data-name="Ellipse 2" d="M28.01,0A31.678,31.678,0,0,1,38.9,1.9a28.135,28.135,0,0,1,8.812,5.15,23.4,23.4,0,0,1,5.821,7.563,20.159,20.159,0,0,1-.359,18.156,23.74,23.74,0,0,1-5.962,7.267,28.381,28.381,0,0,1-8.671,4.853,32.189,32.189,0,0,1-21.055,0,28.381,28.381,0,0,1-8.671-4.853A23.74,23.74,0,0,1,2.85,32.768,20.159,20.159,0,0,1,2.49,14.611,23.4,23.4,0,0,1,8.311,7.048,28.135,28.135,0,0,1,17.123,1.9,31.678,31.678,0,0,1,28.01,0Z" transform="translate(-2237.51 739.746)" fill="#fff"/>
    <rect id="Rectangle_53" data-name="Rectangle 53" width="287" height="27" rx="13.5" transform="translate(-2353 600)" fill="#fff"/>
    <rect id="Rectangle_54" data-name="Rectangle 54" width="249" height="27" rx="13.5" transform="translate(-2334 567)" fill="#fff"/>
  </g>
</svg>
